<svg width="536" height="591" viewBox="0 0 536 591" fill="none" xmlns="http://www.w3.org/2000/svg">
<rect width="535.812" height="590.417" rx="35" fill="white"/>
<path d="M48.48 48.0341L54.4 45.9861H56.32V68.3861H54.08V48.4501L49.056 49.9541L48.48 48.0341ZM75.195 65.6341C73.723 67.7248 71.643 68.7701 68.955 68.7701C66.2883 68.7701 64.1977 67.7248 62.683 65.6341C61.211 63.5221 60.475 60.7061 60.475 57.1861C60.475 53.6448 61.211 50.8394 62.683 48.7701C64.1977 46.6581 66.2883 45.6021 68.955 45.6021C71.643 45.6021 73.723 46.6581 75.195 48.7701C76.6883 50.8394 77.435 53.6448 77.435 57.1861C77.435 60.7274 76.6883 63.5434 75.195 65.6341ZM64.347 64.1301C65.4777 65.7728 67.0137 66.5941 68.955 66.5941C70.9177 66.5941 72.443 65.7728 73.531 64.1301C74.6403 62.5088 75.195 60.1941 75.195 57.1861C75.195 54.1781 74.6403 51.8634 73.531 50.2421C72.443 48.5994 70.9177 47.7781 68.955 47.7781C67.0137 47.7781 65.4777 48.5994 64.347 50.2421C63.259 51.8848 62.715 54.1994 62.715 57.1861C62.715 60.1728 63.259 62.4874 64.347 64.1301ZM95.3513 65.6341C93.8793 67.7248 91.7993 68.7701 89.1113 68.7701C86.4446 68.7701 84.3539 67.7248 82.8393 65.6341C81.3673 63.5221 80.6313 60.7061 80.6313 57.1861C80.6313 53.6448 81.3673 50.8394 82.8393 48.7701C84.3539 46.6581 86.4446 45.6021 89.1113 45.6021C91.7993 45.6021 93.8793 46.6581 95.3513 48.7701C96.8446 50.8394 97.5913 53.6448 97.5913 57.1861C97.5913 60.7274 96.8446 63.5434 95.3513 65.6341ZM84.5033 64.1301C85.6339 65.7728 87.1699 66.5941 89.1113 66.5941C91.0739 66.5941 92.5993 65.7728 93.6873 64.1301C94.7966 62.5088 95.3513 60.1941 95.3513 57.1861C95.3513 54.1781 94.7966 51.8634 93.6873 50.2421C92.5993 48.5994 91.0739 47.7781 89.1113 47.7781C87.1699 47.7781 85.6339 48.5994 84.5033 50.2421C83.4153 51.8848 82.8713 54.1994 82.8713 57.1861C82.8713 60.1728 83.4153 62.4874 84.5033 64.1301ZM105.379 55.2021C103.971 55.2021 102.808 54.7434 101.891 53.8261C100.952 52.8874 100.483 51.7461 100.483 50.4021C100.483 49.0794 100.952 47.9488 101.891 47.0101C102.829 46.0714 103.992 45.6021 105.379 45.6021C106.765 45.6021 107.928 46.0714 108.867 47.0101C109.805 47.9488 110.275 49.0794 110.275 50.4021C110.275 51.7674 109.816 52.9088 108.899 53.8261C107.981 54.7434 106.808 55.2021 105.379 55.2021ZM102.531 50.4021C102.531 51.2128 102.797 51.8954 103.331 52.4501C103.864 53.0048 104.547 53.2821 105.379 53.2821C106.211 53.2821 106.893 53.0048 107.427 52.4501C107.96 51.8954 108.227 51.2128 108.227 50.4021C108.227 49.5914 107.96 48.9088 107.427 48.3541C106.893 47.7994 106.211 47.5221 105.379 47.5221C104.547 47.5221 103.864 47.7994 103.331 48.3541C102.797 48.9088 102.531 49.5914 102.531 50.4021ZM102.947 66.1141L101.603 65.3461L116.611 48.4821L117.987 49.2501L102.947 66.1141ZM117.923 67.3941C117.005 68.3114 115.843 68.7701 114.435 68.7701C113.027 68.7701 111.864 68.3114 110.947 67.3941C110.008 66.4554 109.539 65.3141 109.539 63.9701C109.539 62.6474 110.008 61.5168 110.947 60.5781C111.885 59.6394 113.048 59.1701 114.435 59.1701C115.821 59.1701 116.984 59.6394 117.923 60.5781C118.861 61.5168 119.331 62.6474 119.331 63.9701C119.331 65.3141 118.861 66.4554 117.923 67.3941ZM111.587 63.9701C111.587 64.7808 111.853 65.4634 112.387 66.0181C112.92 66.5728 113.603 66.8501 114.435 66.8501C115.267 66.8501 115.949 66.5728 116.483 66.0181C117.016 65.4634 117.283 64.7808 117.283 63.9701C117.283 63.1594 117.016 62.4768 116.483 61.9221C115.949 61.3674 115.267 61.0901 114.435 61.0901C113.603 61.0901 112.92 61.3674 112.387 61.9221C111.853 62.4768 111.587 63.1594 111.587 63.9701ZM144.898 66.3701C143.255 67.9701 141.271 68.7701 138.946 68.7701C136.578 68.7701 134.583 67.9701 132.962 66.3701C131.341 64.7488 130.53 62.7541 130.53 60.3861C130.53 58.0181 131.341 56.0341 132.962 54.4341C134.583 52.8128 136.578 52.0021 138.946 52.0021C141.293 52.0021 143.277 52.8128 144.898 54.4341C146.541 56.0341 147.362 58.0181 147.362 60.3861C147.362 62.7328 146.541 64.7274 144.898 66.3701ZM134.466 64.8981C135.682 66.1141 137.175 66.7221 138.946 66.7221C140.717 66.7221 142.21 66.1141 143.426 64.8981C144.642 63.6394 145.25 62.1354 145.25 60.3861C145.25 58.6154 144.642 57.1221 143.426 55.9061C142.21 54.6688 140.717 54.0501 138.946 54.0501C137.175 54.0501 135.682 54.6688 134.466 55.9061C133.25 57.1221 132.642 58.6154 132.642 60.3861C132.642 62.1354 133.25 63.6394 134.466 64.8981ZM159.472 52.0021C161.755 52.0021 163.696 52.8128 165.296 54.4341C166.918 56.0554 167.728 58.0394 167.728 60.3861C167.728 62.7328 166.918 64.7168 165.296 66.3381C163.696 67.9594 161.755 68.7701 159.472 68.7701C156.635 68.7701 154.48 67.5968 153.008 65.2501V74.7861H150.896V52.3861H153.008V55.5221C154.48 53.1754 156.635 52.0021 159.472 52.0021ZM154.832 64.8981C156.048 66.1141 157.542 66.7221 159.312 66.7221C161.083 66.7221 162.576 66.1141 163.792 64.8981C165.008 63.6394 165.616 62.1354 165.616 60.3861C165.616 58.6154 165.008 57.1221 163.792 55.9061C162.576 54.6688 161.083 54.0501 159.312 54.0501C157.542 54.0501 156.048 54.6688 154.832 55.9061C153.616 57.1221 153.008 58.6154 153.008 60.3861C153.008 62.1354 153.616 63.6394 154.832 64.8981ZM171.24 52.3861H181.48V54.4341H173.352V68.3861H171.24V52.3861ZM197.188 55.5221V52.3861H199.3V68.3861H197.188V65.2501C195.716 67.5968 193.561 68.7701 190.724 68.7701C188.441 68.7701 186.489 67.9594 184.868 66.3381C183.268 64.7168 182.468 62.7328 182.468 60.3861C182.468 58.0394 183.268 56.0554 184.868 54.4341C186.489 52.8128 188.441 52.0021 190.724 52.0021C193.561 52.0021 195.716 53.1754 197.188 55.5221ZM186.404 64.8981C187.62 66.1141 189.113 66.7221 190.884 66.7221C192.654 66.7221 194.148 66.1141 195.364 64.8981C196.58 63.6394 197.188 62.1354 197.188 60.3861C197.188 58.6154 196.58 57.1221 195.364 55.9061C194.148 54.6688 192.654 54.0501 190.884 54.0501C189.113 54.0501 187.62 54.6688 186.404 55.9061C185.188 57.1221 184.58 58.6154 184.58 60.3861C184.58 62.1354 185.188 63.6394 186.404 64.8981ZM215.099 59.3621V52.3861H217.211V68.3861H215.099V61.4101H205.883V68.3861H203.771V52.3861H205.883V59.3621H215.099ZM223.79 64.7061L233.326 52.3861H235.118V68.3861H233.006V56.0661L223.47 68.3861H221.678V52.3861H223.79V64.7061ZM249.952 60.3541V52.3861H252.064V68.3861H249.952V62.3061C248.714 62.9461 247.189 63.2661 245.376 63.2661C243.264 63.2661 241.664 62.7861 240.576 61.8261C239.488 60.8448 238.944 59.4048 238.944 57.5061V52.3861H241.056V57.5061C241.056 58.8288 241.397 59.7888 242.08 60.3861C242.784 60.9834 243.861 61.2821 245.312 61.2821C246.933 61.2821 248.48 60.9728 249.952 60.3541ZM263.945 52.0021C266.334 52.0021 268.243 52.8448 269.673 54.5301C271.145 56.1941 271.881 58.1674 271.881 60.4501C271.881 60.5568 271.859 60.8874 271.817 61.4421H257.769C257.982 63.0421 258.665 64.3221 259.817 65.2821C260.969 66.2421 262.409 66.7221 264.137 66.7221C266.569 66.7221 268.286 65.8154 269.289 64.0021L271.145 65.0901C270.441 66.2421 269.47 67.1488 268.233 67.8101C267.017 68.4501 265.641 68.7701 264.105 68.7701C261.587 68.7701 259.539 67.9808 257.961 66.4021C256.382 64.8234 255.593 62.8181 255.593 60.3861C255.593 57.9754 256.371 55.9808 257.929 54.4021C259.486 52.8021 261.491 52.0021 263.945 52.0021ZM263.945 54.0501C262.281 54.0501 260.883 54.5408 259.753 55.5221C258.643 56.5034 257.982 57.7941 257.769 59.3941H269.705C269.47 57.6874 268.819 56.3754 267.753 55.4581C266.643 54.5194 265.374 54.0501 263.945 54.0501ZM282.696 68.7701C280.285 68.7701 278.28 67.9701 276.68 66.3701C275.08 64.7274 274.28 62.7328 274.28 60.3861C274.28 58.0181 275.08 56.0341 276.68 54.4341C278.28 52.8128 280.285 52.0021 282.696 52.0021C284.275 52.0021 285.693 52.3861 286.952 53.1541C288.211 53.9008 289.128 54.9141 289.704 56.1941L287.976 57.1861C287.549 56.2261 286.856 55.4688 285.896 54.9141C284.957 54.3381 283.891 54.0501 282.696 54.0501C280.925 54.0501 279.432 54.6688 278.216 55.9061C277 57.1221 276.392 58.6154 276.392 60.3861C276.392 62.1354 277 63.6394 278.216 64.8981C279.432 66.1141 280.925 66.7221 282.696 66.7221C283.869 66.7221 284.925 66.4448 285.864 65.8901C286.824 65.3354 287.571 64.5674 288.104 63.5861L289.864 64.6101C289.203 65.8901 288.232 66.9034 286.952 67.6501C285.672 68.3968 284.253 68.7701 282.696 68.7701ZM297.248 60.0661L305.824 68.3861H303.008L295.008 60.6741V68.3861H292.896V52.3861H295.008V59.4581L302.624 52.3861H305.504L297.248 60.0661ZM310.821 64.7061L320.357 52.3861H322.149V68.3861H320.037V56.0661L310.501 68.3861H308.709V52.3861H310.821V64.7061ZM337.495 49.8261H329.175V47.9701H337.495V49.8261ZM328.727 64.7061L338.263 52.3861H340.055V68.3861H337.943V56.0661L328.407 68.3861H326.615V52.3861H328.727V64.7061ZM359.721 60.0981L365.961 68.3861H363.433L358.441 61.7941L353.449 68.3861H350.921L357.193 60.0981L351.337 52.3861H353.865L358.441 58.4341L363.017 52.3861H365.545L359.721 60.0981ZM370.498 52.3861H381.954V68.3861H379.842V54.4341H372.61V61.5701C372.61 64.2368 372.098 66.0714 371.074 67.0741C370.071 68.0768 368.684 68.5141 366.914 68.3861V66.4021C368.151 66.5301 369.058 66.2314 369.634 65.5061C370.21 64.7808 370.498 63.4688 370.498 61.5701V52.3861ZM399.836 66.3701C398.193 67.9701 396.209 68.7701 393.884 68.7701C391.516 68.7701 389.521 67.9701 387.9 66.3701C386.278 64.7488 385.468 62.7541 385.468 60.3861C385.468 58.0181 386.278 56.0341 387.9 54.4341C389.521 52.8128 391.516 52.0021 393.884 52.0021C396.23 52.0021 398.214 52.8128 399.836 54.4341C401.478 56.0341 402.3 58.0181 402.3 60.3861C402.3 62.7328 401.478 64.7274 399.836 66.3701ZM389.404 64.8981C390.62 66.1141 392.113 66.7221 393.884 66.7221C395.654 66.7221 397.148 66.1141 398.364 64.8981C399.58 63.6394 400.188 62.1354 400.188 60.3861C400.188 58.6154 399.58 57.1221 398.364 55.9061C397.148 54.6688 395.654 54.0501 393.884 54.0501C392.113 54.0501 390.62 54.6688 389.404 55.9061C388.188 57.1221 387.58 58.6154 387.58 60.3861C387.58 62.1354 388.188 63.6394 389.404 64.8981ZM405.834 52.3861H419.274V68.3861H417.162V54.4341H407.946V68.3861H405.834V52.3861ZM437.148 66.3701C435.505 67.9701 433.521 68.7701 431.196 68.7701C428.828 68.7701 426.833 67.9701 425.212 66.3701C423.591 64.7488 422.78 62.7541 422.78 60.3861C422.78 58.0181 423.591 56.0341 425.212 54.4341C426.833 52.8128 428.828 52.0021 431.196 52.0021C433.543 52.0021 435.527 52.8128 437.148 54.4341C438.791 56.0341 439.612 58.0181 439.612 60.3861C439.612 62.7328 438.791 64.7274 437.148 66.3701ZM426.716 64.8981C427.932 66.1141 429.425 66.7221 431.196 66.7221C432.967 66.7221 434.46 66.1141 435.676 64.8981C436.892 63.6394 437.5 62.1354 437.5 60.3861C437.5 58.6154 436.892 57.1221 435.676 55.9061C434.46 54.6688 432.967 54.0501 431.196 54.0501C429.425 54.0501 427.932 54.6688 426.716 55.9061C425.5 57.1221 424.892 58.6154 424.892 60.3861C424.892 62.1354 425.5 63.6394 426.716 64.8981ZM447.498 60.0661L456.074 68.3861H453.258L445.258 60.6741V68.3861H443.146V52.3861H445.258V59.4581L452.874 52.3861H455.754L447.498 60.0661ZM462.159 66.9461C462.159 67.4368 461.988 67.8528 461.647 68.1941C461.305 68.5354 460.889 68.7061 460.399 68.7061C459.908 68.7061 459.492 68.5354 459.151 68.1941C458.809 67.8528 458.639 67.4368 458.639 66.9461C458.639 66.4554 458.809 66.0394 459.151 65.6981C459.492 65.3568 459.908 65.1861 460.399 65.1861C460.889 65.1861 461.305 65.3568 461.647 65.6981C461.988 66.0394 462.159 66.4554 462.159 66.9461ZM61.024 106.77C57.6107 106.77 54.8053 105.65 52.608 103.41C50.3893 101.149 49.28 98.4074 49.28 95.1861C49.28 91.9648 50.3893 89.2234 52.608 86.9621C54.8053 84.7221 57.6107 83.6021 61.024 83.6021C63.072 83.6021 64.96 84.1034 66.688 85.1061C68.416 86.0874 69.76 87.4208 70.72 89.1061L68.736 90.2581C68.032 88.8928 66.9867 87.8048 65.6 86.9941C64.2133 86.1834 62.688 85.7781 61.024 85.7781C58.208 85.7781 55.9253 86.6848 54.176 88.4981C52.4053 90.3328 51.52 92.5621 51.52 95.1861C51.52 97.8101 52.4053 100.039 54.176 101.874C55.9253 103.687 58.208 104.594 61.024 104.594C62.688 104.594 64.2133 104.189 65.6 103.378C66.9867 102.567 68.032 101.479 68.736 100.114L70.72 101.234C69.8027 102.919 68.4693 104.263 66.72 105.266C64.9707 106.269 63.072 106.77 61.024 106.77ZM72.1638 90.3861H85.6038V92.4341H79.9398V106.386H77.8278V92.4341H72.1638V90.3861ZM90.2895 102.706L99.8255 90.3861H101.618V106.386H99.5055V94.0661L89.9695 106.386H88.1775V90.3861H90.2895V102.706ZM114.66 90.0021C116.942 90.0021 118.884 90.8128 120.484 92.4341C122.105 94.0554 122.916 96.0394 122.916 98.3861C122.916 100.733 122.105 102.717 120.484 104.338C118.884 105.959 116.942 106.77 114.66 106.77C111.822 106.77 109.668 105.597 108.196 103.25V112.786H106.084V90.3861H108.196V93.5221C109.668 91.1754 111.822 90.0021 114.66 90.0021ZM110.02 102.898C111.236 104.114 112.729 104.722 114.5 104.722C116.27 104.722 117.764 104.114 118.98 102.898C120.196 101.639 120.804 100.135 120.804 98.3861C120.804 96.6154 120.196 95.1221 118.98 93.9061C117.764 92.6688 116.27 92.0501 114.5 92.0501C112.729 92.0501 111.236 92.6688 110.02 93.9061C108.804 95.1221 108.196 96.6154 108.196 98.3861C108.196 100.135 108.804 101.639 110.02 102.898ZM130.78 98.0661L139.356 106.386H136.54L128.54 98.6741V106.386H126.428V90.3861H128.54V97.4581L136.156 90.3861H139.036L130.78 98.0661ZM154.406 93.5221V90.3861H156.518V106.386H154.406V103.25C152.934 105.597 150.78 106.77 147.942 106.77C145.66 106.77 143.708 105.959 142.086 104.338C140.486 102.717 139.686 100.733 139.686 98.3861C139.686 96.0394 140.486 94.0554 142.086 92.4341C143.708 90.8128 145.66 90.0021 147.942 90.0021C150.78 90.0021 152.934 91.1754 154.406 93.5221ZM143.622 102.898C144.838 104.114 146.332 104.722 148.102 104.722C149.873 104.722 151.366 104.114 152.582 102.898C153.798 101.639 154.406 100.135 154.406 98.3861C154.406 96.6154 153.798 95.1221 152.582 93.9061C151.366 92.6688 149.873 92.0501 148.102 92.0501C146.332 92.0501 144.838 92.6688 143.622 93.9061C142.406 95.1221 141.798 96.6154 141.798 98.3861C141.798 100.135 142.406 101.639 143.622 102.898ZM168.99 90.3861H182.43V106.386H180.318V92.4341H171.102V106.386H168.99V90.3861ZM195.472 90.0021C197.755 90.0021 199.696 90.8128 201.296 92.4341C202.918 94.0554 203.728 96.0394 203.728 98.3861C203.728 100.733 202.918 102.717 201.296 104.338C199.696 105.959 197.755 106.77 195.472 106.77C192.635 106.77 190.48 105.597 189.008 103.25V112.786H186.896V90.3861H189.008V93.5221C190.48 91.1754 192.635 90.0021 195.472 90.0021ZM190.832 102.898C192.048 104.114 193.542 104.722 195.312 104.722C197.083 104.722 198.576 104.114 199.792 102.898C201.008 101.639 201.616 100.135 201.616 98.3861C201.616 96.6154 201.008 95.1221 199.792 93.9061C198.576 92.6688 197.083 92.0501 195.312 92.0501C193.542 92.0501 192.048 92.6688 190.832 93.9061C189.616 95.1221 189.008 96.6154 189.008 98.3861C189.008 100.135 189.616 101.639 190.832 102.898ZM209.352 102.706L218.888 90.3861H220.68V106.386H218.568V94.0661L209.032 106.386H207.24V90.3861H209.352V102.706ZM245.626 86.0981L240.41 93.2981C242.181 93.5114 243.653 94.2048 244.826 95.3781C246 96.4874 246.586 97.9914 246.586 99.8901C246.586 102.002 245.85 103.687 244.378 104.946C242.949 106.162 241.178 106.77 239.066 106.77C237.381 106.77 235.888 106.386 234.586 105.618C233.285 104.829 232.378 103.73 231.866 102.322L233.722 101.234C234.085 102.322 234.725 103.154 235.642 103.73C236.581 104.306 237.722 104.594 239.066 104.594C240.645 104.594 241.914 104.178 242.874 103.346C243.856 102.493 244.346 101.341 244.346 99.8901C244.346 98.4394 243.856 97.2981 242.874 96.4661C241.914 95.6128 240.645 95.1861 239.066 95.1861V95.1541L239.034 95.1861H238.426L237.466 93.7141L243.034 86.0981H232.506V83.9861H245.626V86.0981ZM264.195 103.634C262.723 105.725 260.643 106.77 257.955 106.77C255.288 106.77 253.198 105.725 251.683 103.634C250.211 101.522 249.475 98.7061 249.475 95.1861C249.475 91.6448 250.211 88.8394 251.683 86.7701C253.198 84.6581 255.288 83.6021 257.955 83.6021C260.643 83.6021 262.723 84.6581 264.195 86.7701C265.688 88.8394 266.435 91.6448 266.435 95.1861C266.435 98.7274 265.688 101.543 264.195 103.634ZM253.347 102.13C254.478 103.773 256.014 104.594 257.955 104.594C259.918 104.594 261.443 103.773 262.531 102.13C263.64 100.509 264.195 98.1941 264.195 95.1861C264.195 92.1781 263.64 89.8634 262.531 88.2421C261.443 86.5994 259.918 85.7781 257.955 85.7781C256.014 85.7781 254.478 86.5994 253.347 88.2421C252.259 89.8848 251.715 92.1994 251.715 95.1861C251.715 98.1728 252.259 100.487 253.347 102.13ZM278.271 90.3861H288.511V92.4341H280.383V106.386H278.271V90.3861ZM299.66 90.0021C301.942 90.0021 303.884 90.8128 305.484 92.4341C307.105 94.0554 307.916 96.0394 307.916 98.3861C307.916 100.733 307.105 102.717 305.484 104.338C303.884 105.959 301.942 106.77 299.66 106.77C296.822 106.77 294.668 105.597 293.196 103.25V112.786H291.084V90.3861H293.196V93.5221C294.668 91.1754 296.822 90.0021 299.66 90.0021ZM295.02 102.898C296.236 104.114 297.729 104.722 299.5 104.722C301.27 104.722 302.764 104.114 303.98 102.898C305.196 101.639 305.804 100.135 305.804 98.3861C305.804 96.6154 305.196 95.1221 303.98 93.9061C302.764 92.6688 301.27 92.0501 299.5 92.0501C297.729 92.0501 296.236 92.6688 295.02 93.9061C293.804 95.1221 293.196 96.6154 293.196 98.3861C293.196 100.135 293.804 101.639 295.02 102.898ZM325.188 93.5221V90.3861H327.3V106.386H325.188V103.25C323.716 105.597 321.561 106.77 318.724 106.77C316.441 106.77 314.489 105.959 312.868 104.338C311.268 102.717 310.468 100.733 310.468 98.3861C310.468 96.0394 311.268 94.0554 312.868 92.4341C314.489 90.8128 316.441 90.0021 318.724 90.0021C321.561 90.0021 323.716 91.1754 325.188 93.5221ZM314.404 102.898C315.62 104.114 317.113 104.722 318.884 104.722C320.654 104.722 322.148 104.114 323.364 102.898C324.58 101.639 325.188 100.135 325.188 98.3861C325.188 96.6154 324.58 95.1221 323.364 93.9061C322.148 92.6688 320.654 92.0501 318.884 92.0501C317.113 92.0501 315.62 92.6688 314.404 93.9061C313.188 95.1221 312.58 96.6154 312.58 98.3861C312.58 100.135 313.188 101.639 314.404 102.898ZM345.211 90.3861V104.338H347.451V110.674H345.339V106.386H332.283V110.674H330.171V104.338H332.123C333.211 102.887 333.755 100.871 333.755 98.2901V90.3861H345.211ZM334.683 104.338H343.099V92.4341H335.867V98.2901C335.867 100.765 335.473 102.781 334.683 104.338ZM356.357 103.794L361.541 90.3861H363.781L356.933 107.858C356.293 109.479 355.397 110.727 354.245 111.602C353.115 112.498 351.856 112.893 350.469 112.786V110.802C352.389 111.037 353.851 109.927 354.853 107.474L355.269 106.482L348.101 90.3861H350.341L356.357 103.794ZM373.165 106.77C370.754 106.77 368.749 105.97 367.149 104.37C365.549 102.727 364.749 100.733 364.749 98.3861C364.749 96.0181 365.549 94.0341 367.149 92.4341C368.749 90.8128 370.754 90.0021 373.165 90.0021C374.743 90.0021 376.162 90.3861 377.421 91.1541C378.679 91.9008 379.597 92.9141 380.173 94.1941L378.445 95.1861C378.018 94.2261 377.325 93.4688 376.365 92.9141C375.426 92.3381 374.359 92.0501 373.165 92.0501C371.394 92.0501 369.901 92.6688 368.685 93.9061C367.469 95.1221 366.861 96.6154 366.861 98.3861C366.861 100.135 367.469 101.639 368.685 102.898C369.901 104.114 371.394 104.722 373.165 104.722C374.338 104.722 375.394 104.445 376.333 103.89C377.293 103.335 378.039 102.567 378.573 101.586L380.333 102.61C379.671 103.89 378.701 104.903 377.421 105.65C376.141 106.397 374.722 106.77 373.165 106.77ZM396.617 104.37C394.974 105.97 392.99 106.77 390.665 106.77C388.297 106.77 386.302 105.97 384.681 104.37C383.059 102.749 382.249 100.754 382.249 98.3861C382.249 96.0181 383.059 94.0341 384.681 92.4341C386.302 90.8128 388.297 90.0021 390.665 90.0021C393.011 90.0021 394.995 90.8128 396.617 92.4341C398.259 94.0341 399.081 96.0181 399.081 98.3861C399.081 100.733 398.259 102.727 396.617 104.37ZM386.185 102.898C387.401 104.114 388.894 104.722 390.665 104.722C392.435 104.722 393.929 104.114 395.145 102.898C396.361 101.639 396.969 100.135 396.969 98.3861C396.969 96.6154 396.361 95.1221 395.145 93.9061C393.929 92.6688 392.435 92.0501 390.665 92.0501C388.894 92.0501 387.401 92.6688 386.185 93.9061C384.969 95.1221 384.361 96.6154 384.361 98.3861C384.361 100.135 384.969 101.639 386.185 102.898ZM412.791 98.1621C414.54 98.8021 415.415 100.05 415.415 101.906C415.415 103.229 414.967 104.306 414.071 105.138C413.196 105.97 411.97 106.386 410.391 106.386H402.615V90.3861H409.751C411.287 90.3861 412.482 90.7808 413.335 91.5701C414.21 92.3594 414.647 93.3941 414.647 94.6741C414.647 96.2741 414.028 97.4368 412.791 98.1621ZM409.751 92.4341H404.727V97.2981H409.751C411.607 97.2981 412.535 96.4661 412.535 94.8021C412.535 94.0554 412.29 93.4794 411.799 93.0741C411.33 92.6474 410.647 92.4341 409.751 92.4341ZM404.727 104.338H410.391C411.33 104.338 412.044 104.114 412.535 103.666C413.047 103.218 413.303 102.589 413.303 101.778C413.303 101.01 413.047 100.413 412.535 99.9861C412.044 99.5594 411.33 99.3461 410.391 99.3461H404.727V104.338ZM421.503 104.946C421.503 105.437 421.332 105.853 420.991 106.194C420.649 106.535 420.233 106.706 419.743 106.706C419.252 106.706 418.836 106.535 418.495 106.194C418.153 105.853 417.983 105.437 417.983 104.946C417.983 104.455 418.153 104.039 418.495 103.698C418.836 103.357 419.252 103.186 419.743 103.186C420.233 103.186 420.649 103.357 420.991 103.698C421.332 104.039 421.503 104.455 421.503 104.946ZM64.96 131.81V121.986H67.2V144.386H64.96V133.922H52.8V144.386H50.56V121.986H52.8V131.81H64.96ZM79.382 128.002C81.7713 128.002 83.6807 128.845 85.11 130.53C86.582 132.194 87.318 134.167 87.318 136.45C87.318 136.557 87.2967 136.887 87.254 137.442H73.206C73.4193 139.042 74.102 140.322 75.254 141.282C76.406 142.242 77.846 142.722 79.574 142.722C82.006 142.722 83.7233 141.815 84.726 140.002L86.582 141.09C85.878 142.242 84.9073 143.149 83.67 143.81C82.454 144.45 81.078 144.77 79.542 144.77C77.0247 144.77 74.9767 143.981 73.398 142.402C71.8193 140.823 71.03 138.818 71.03 136.386C71.03 133.975 71.8087 131.981 73.366 130.402C74.9233 128.802 76.9287 128.002 79.382 128.002ZM79.382 130.05C77.718 130.05 76.3207 130.541 75.19 131.522C74.0807 132.503 73.4193 133.794 73.206 135.394H85.142C84.9073 133.687 84.2567 132.375 83.19 131.458C82.0807 130.519 80.8113 130.05 79.382 130.05ZM106.134 144.77C103.723 144.77 101.718 143.97 100.118 142.37C98.5175 140.727 97.7175 138.733 97.7175 136.386C97.7175 134.018 98.5175 132.034 100.118 130.434C101.718 128.813 103.723 128.002 106.134 128.002C107.712 128.002 109.131 128.386 110.39 129.154C111.648 129.901 112.566 130.914 113.142 132.194L111.414 133.186C110.987 132.226 110.294 131.469 109.334 130.914C108.395 130.338 107.328 130.05 106.134 130.05C104.363 130.05 102.87 130.669 101.654 131.906C100.438 133.122 99.8295 134.615 99.8295 136.386C99.8295 138.135 100.438 139.639 101.654 140.898C102.87 142.114 104.363 142.722 106.134 142.722C107.307 142.722 108.363 142.445 109.302 141.89C110.262 141.335 111.008 140.567 111.542 139.586L113.302 140.61C112.64 141.89 111.67 142.903 110.39 143.65C109.11 144.397 107.691 144.77 106.134 144.77ZM122.045 141.794L127.229 128.386H129.469L122.621 145.858C121.981 147.479 121.085 148.727 119.933 149.602C118.802 150.498 117.543 150.893 116.157 150.786V148.802C118.077 149.037 119.538 147.927 120.541 145.474L120.957 144.482L113.789 128.386H116.029L122.045 141.794ZM151.349 142.338V128.386H153.461V144.386H132.021V128.386H134.133V142.338H141.685V128.386H143.797V142.338H151.349ZM160.04 140.706L169.576 128.386H171.368V144.386H169.256V132.066L159.72 144.386H157.928V128.386H160.04V140.706ZM173.914 128.386H187.354V130.434H181.69V144.386H179.578V130.434H173.914V128.386ZM192.04 134.466H196.424C197.896 134.466 199.154 134.935 200.2 135.874C201.245 136.791 201.768 137.975 201.768 139.426C201.768 140.898 201.245 142.093 200.2 143.01C199.197 143.927 197.938 144.386 196.424 144.386H189.928V128.386H192.04V134.466ZM192.04 142.338H196.424C197.341 142.338 198.109 142.071 198.728 141.538C199.346 140.983 199.656 140.279 199.656 139.426C199.656 138.573 199.346 137.879 198.728 137.346C198.109 136.791 197.341 136.514 196.424 136.514H192.04V142.338ZM223.135 136.162C224.884 136.802 225.759 138.05 225.759 139.906C225.759 141.229 225.311 142.306 224.415 143.138C223.54 143.97 222.313 144.386 220.735 144.386H212.959V128.386H220.095C221.631 128.386 222.825 128.781 223.679 129.57C224.553 130.359 224.991 131.394 224.991 132.674C224.991 134.274 224.372 135.437 223.135 136.162ZM220.095 130.434H215.071V135.298H220.095C221.951 135.298 222.879 134.466 222.879 132.802C222.879 132.055 222.633 131.479 222.143 131.074C221.673 130.647 220.991 130.434 220.095 130.434ZM215.071 142.338H220.735C221.673 142.338 222.388 142.114 222.879 141.666C223.391 141.218 223.647 140.589 223.647 139.778C223.647 139.01 223.391 138.413 222.879 137.986C222.388 137.559 221.673 137.346 220.735 137.346H215.071V142.338ZM244.415 144.77C242.004 144.77 239.999 143.97 238.399 142.37C236.799 140.727 235.999 138.733 235.999 136.386C235.999 134.018 236.799 132.034 238.399 130.434C239.999 128.813 242.004 128.002 244.415 128.002C245.993 128.002 247.412 128.386 248.671 129.154C249.929 129.901 250.847 130.914 251.423 132.194L249.695 133.186C249.268 132.226 248.575 131.469 247.615 130.914C246.676 130.338 245.609 130.05 244.415 130.05C242.644 130.05 241.151 130.669 239.935 131.906C238.719 133.122 238.111 134.615 238.111 136.386C238.111 138.135 238.719 139.639 239.935 140.898C241.151 142.114 242.644 142.722 244.415 142.722C245.588 142.722 246.644 142.445 247.583 141.89C248.543 141.335 249.289 140.567 249.823 139.586L251.583 140.61C250.921 141.89 249.951 142.903 248.671 143.65C247.391 144.397 245.972 144.77 244.415 144.77ZM252.383 128.386H265.823V130.434H260.159V144.386H258.047V130.434H252.383V128.386ZM270.508 140.706L280.044 128.386H281.836V144.386H279.724V132.066L270.188 144.386H268.396V128.386H270.508V140.706ZM294.879 128.002C297.161 128.002 299.103 128.813 300.703 130.434C302.324 132.055 303.135 134.039 303.135 136.386C303.135 138.733 302.324 140.717 300.703 142.338C299.103 143.959 297.161 144.77 294.879 144.77C292.041 144.77 289.887 143.597 288.415 141.25V150.786H286.303V128.386H288.415V131.522C289.887 129.175 292.041 128.002 294.879 128.002ZM290.239 140.898C291.455 142.114 292.948 142.722 294.719 142.722C296.489 142.722 297.983 142.114 299.199 140.898C300.415 139.639 301.023 138.135 301.023 136.386C301.023 134.615 300.415 133.122 299.199 131.906C297.983 130.669 296.489 130.05 294.719 130.05C292.948 130.05 291.455 130.669 290.239 131.906C289.023 133.122 288.415 134.615 288.415 136.386C288.415 138.135 289.023 139.639 290.239 140.898ZM320.406 131.522V128.386H322.518V144.386H320.406V141.25C318.934 143.597 316.78 144.77 313.942 144.77C311.66 144.77 309.708 143.959 308.086 142.338C306.486 140.717 305.686 138.733 305.686 136.386C305.686 134.039 306.486 132.055 308.086 130.434C309.708 128.813 311.66 128.002 313.942 128.002C316.78 128.002 318.934 129.175 320.406 131.522ZM309.622 140.898C310.838 142.114 312.332 142.722 314.102 142.722C315.873 142.722 317.366 142.114 318.582 140.898C319.798 139.639 320.406 138.135 320.406 136.386C320.406 134.615 319.798 133.122 318.582 131.906C317.366 130.669 315.873 130.05 314.102 130.05C312.332 130.05 310.838 130.669 309.622 131.906C308.406 133.122 307.798 134.615 307.798 136.386C307.798 138.135 308.406 139.639 309.622 140.898ZM328.654 128.386H340.11V144.386H337.998V130.434H330.766V137.57C330.766 140.237 330.254 142.071 329.23 143.074C328.227 144.077 326.841 144.514 325.07 144.386V142.402C326.307 142.53 327.214 142.231 327.79 141.506C328.366 140.781 328.654 139.469 328.654 137.57V128.386ZM346.696 134.466H351.08C352.552 134.466 353.81 134.935 354.856 135.874C355.901 136.791 356.424 137.975 356.424 139.426C356.424 140.898 355.901 142.093 354.856 143.01C353.853 143.927 352.594 144.386 351.08 144.386H344.584V128.386H346.696V134.466ZM346.696 142.338H351.08C351.997 142.338 352.765 142.071 353.384 141.538C354.002 140.983 354.312 140.279 354.312 139.426C354.312 138.573 354.002 137.879 353.384 137.346C352.765 136.791 351.997 136.514 351.08 136.514H346.696V142.338ZM370.943 135.362V128.386H373.055V144.386H370.943V137.41H361.727V144.386H359.615V128.386H361.727V135.362H370.943ZM390.929 142.37C389.287 143.97 387.303 144.77 384.977 144.77C382.609 144.77 380.615 143.97 378.993 142.37C377.372 140.749 376.561 138.754 376.561 136.386C376.561 134.018 377.372 132.034 378.993 130.434C380.615 128.813 382.609 128.002 384.977 128.002C387.324 128.002 389.308 128.813 390.929 130.434C392.572 132.034 393.393 134.018 393.393 136.386C393.393 138.733 392.572 140.727 390.929 142.37ZM380.497 140.898C381.713 142.114 383.207 142.722 384.977 142.722C386.748 142.722 388.241 142.114 389.457 140.898C390.673 139.639 391.281 138.135 391.281 136.386C391.281 134.615 390.673 133.122 389.457 131.906C388.241 130.669 386.748 130.05 384.977 130.05C383.207 130.05 381.713 130.669 380.497 131.906C379.281 133.122 378.673 134.615 378.673 136.386C378.673 138.135 379.281 139.639 380.497 140.898ZM407.808 125.826H399.488V123.97H407.808V125.826ZM399.04 140.706L408.576 128.386H410.368V144.386H408.256V132.066L398.72 144.386H396.928V128.386H399.04V140.706ZM63.488 166.386H65.92V182.386H63.808V169.618L58.208 178.706H57.952L52.352 169.618V182.386H50.24V166.386H52.672L58.08 175.154L63.488 166.386ZM84.1562 169.522V166.386H86.2683V182.386H84.1562V179.25C82.6843 181.597 80.5296 182.77 77.6923 182.77C75.4096 182.77 73.4576 181.959 71.8363 180.338C70.2363 178.717 69.4363 176.733 69.4363 174.386C69.4363 172.039 70.2363 170.055 71.8363 168.434C73.4576 166.813 75.4096 166.002 77.6923 166.002C80.5296 166.002 82.6843 167.175 84.1562 169.522ZM73.3723 178.898C74.5883 180.114 76.0816 180.722 77.8523 180.722C79.6229 180.722 81.1163 180.114 82.3323 178.898C83.5483 177.639 84.1562 176.135 84.1562 174.386C84.1562 172.615 83.5483 171.122 82.3323 169.906C81.1163 168.669 79.6229 168.05 77.8523 168.05C76.0816 168.05 74.5883 168.669 73.3723 169.906C72.1563 171.122 71.5483 172.615 71.5483 174.386C71.5483 176.135 72.1563 177.639 73.3723 178.898ZM110.068 180.338V166.386H112.18V182.386H90.74V166.386H92.852V180.338H100.404V166.386H102.516V180.338H110.068ZM118.758 178.706L128.294 166.386H130.086V182.386H127.974V170.066L118.438 182.386H116.646V166.386H118.758V178.706ZM145.881 173.362V166.386H147.993V182.386H145.881V175.41H136.665V182.386H134.553V166.386H136.665V173.362H145.881ZM159.851 166.002C162.24 166.002 164.149 166.845 165.579 168.53C167.051 170.194 167.787 172.167 167.787 174.45C167.787 174.557 167.765 174.887 167.723 175.442H153.675C153.888 177.042 154.571 178.322 155.723 179.282C156.875 180.242 158.315 180.722 160.043 180.722C162.475 180.722 164.192 179.815 165.195 178.002L167.051 179.09C166.347 180.242 165.376 181.149 164.139 181.81C162.923 182.45 161.547 182.77 160.011 182.77C157.493 182.77 155.445 181.981 153.867 180.402C152.288 178.823 151.499 176.818 151.499 174.386C151.499 171.975 152.277 169.981 153.835 168.402C155.392 166.802 157.397 166.002 159.851 166.002ZM159.851 168.05C158.187 168.05 156.789 168.541 155.659 169.522C154.549 170.503 153.888 171.794 153.675 173.394H165.611C165.376 171.687 164.725 170.375 163.659 169.458C162.549 168.519 161.28 168.05 159.851 168.05ZM173.065 180.946C173.065 181.437 172.894 181.853 172.553 182.194C172.212 182.535 171.796 182.706 171.305 182.706C170.814 182.706 170.398 182.535 170.057 182.194C169.716 181.853 169.545 181.437 169.545 180.946C169.545 180.455 169.716 180.039 170.057 179.698C170.398 179.357 170.814 179.186 171.305 179.186C171.796 179.186 172.212 179.357 172.553 179.698C172.894 180.039 173.065 180.455 173.065 180.946Z" fill="black"/>
<path d="M392.168 522.48L403.24 534H400.296L389.8 523.152V534H387.56V511.6H389.8V521.84L399.976 511.6H402.92L392.168 522.48ZM411.17 531.408L416.354 518H418.594L411.746 535.472C411.106 537.093 410.21 538.341 409.058 539.216C407.927 540.112 406.668 540.507 405.282 540.4V538.416C407.202 538.651 408.663 537.541 409.666 535.088L410.082 534.096L402.914 518H405.154L411.17 531.408ZM421.146 518H434.586V534H432.474V520.048H423.258V534H421.146V518ZM441.165 530.32L450.701 518H452.493V534H450.381V521.68L440.845 534H439.053V518H441.165V530.32ZM455.039 518H468.479V520.048H462.815V534H460.703V520.048H455.039V518ZM473.165 524.08H477.549C479.021 524.08 480.279 524.549 481.325 525.488C482.37 526.405 482.893 527.589 482.893 529.04C482.893 530.512 482.37 531.707 481.325 532.624C480.322 533.541 479.063 534 477.549 534H471.053V518H473.165V524.08ZM473.165 531.952H477.549C478.466 531.952 479.234 531.685 479.853 531.152C480.471 530.597 480.781 529.893 480.781 529.04C480.781 528.187 480.471 527.493 479.853 526.96C479.234 526.405 478.466 526.128 477.549 526.128H473.165V531.952Z" fill="black"/>
<rect x="357.5" y="496.886" width="155" height="54" stroke="black"/>
<path d="M49.6 500.386H54.6C55.8533 500.386 56.9 500.806 57.74 501.646C58.58 502.486 59 503.533 59 504.786C59 506.039 58.58 507.086 57.74 507.926C56.9 508.766 55.8533 509.186 54.6 509.186H51V514.386H49.6V500.386ZM51 507.866H54.6C55.4667 507.866 56.18 507.579 56.74 507.006C57.3133 506.433 57.6 505.693 57.6 504.786C57.6 503.893 57.3133 503.159 56.74 502.586C56.18 501.999 55.4667 501.706 54.6 501.706H51V507.866ZM68.9961 506.346V504.386H70.3161V514.386H68.9961V512.426C68.0761 513.893 66.7294 514.626 64.9561 514.626C63.5294 514.626 62.3094 514.119 61.2961 513.106C60.2961 512.093 59.7961 510.853 59.7961 509.386C59.7961 507.919 60.2961 506.679 61.2961 505.666C62.3094 504.653 63.5294 504.146 64.9561 504.146C66.7294 504.146 68.0761 504.879 68.9961 506.346ZM62.2561 512.206C63.0161 512.966 63.9494 513.346 65.0561 513.346C66.1628 513.346 67.0961 512.966 67.8561 512.206C68.6161 511.419 68.9961 510.479 68.9961 509.386C68.9961 508.279 68.6161 507.346 67.8561 506.586C67.0961 505.813 66.1628 505.426 65.0561 505.426C63.9494 505.426 63.0161 505.813 62.2561 506.586C61.4961 507.346 61.1161 508.279 61.1161 509.386C61.1161 510.479 61.4961 511.419 62.2561 512.206ZM78.2709 509.246C79.4309 509.686 80.0109 510.486 80.0109 511.646C80.0109 512.486 79.6843 513.193 79.0309 513.766C78.4043 514.339 77.4843 514.626 76.2709 514.626C74.2443 514.626 72.9243 513.826 72.3109 512.226L73.4309 511.566C73.8576 512.753 74.8043 513.346 76.2709 513.346C77.0309 513.346 77.6243 513.186 78.0509 512.866C78.4776 512.533 78.6909 512.099 78.6909 511.566C78.6909 511.086 78.5176 510.706 78.1709 510.426C77.8243 510.133 77.3576 509.986 76.7709 509.986H75.3109V508.706H76.3709C76.9443 508.706 77.3909 508.566 77.7109 508.286C78.0443 507.993 78.2109 507.593 78.2109 507.086C78.2109 506.606 78.0109 506.213 77.6109 505.906C77.2243 505.586 76.7109 505.426 76.0709 505.426C74.8309 505.426 73.9976 505.926 73.5709 506.926L72.4709 506.286C73.1376 504.859 74.3376 504.146 76.0709 504.146C77.1376 504.146 77.9776 504.426 78.5909 504.986C79.2176 505.533 79.5309 506.206 79.5309 507.006C79.5309 508.033 79.1109 508.779 78.2709 509.246ZM90.2972 504.386H91.8172V514.386H90.4972V506.406L86.9972 512.086H86.8372L83.3372 506.406V514.386H82.0172V504.386H83.5372L86.9172 509.866L90.2972 504.386ZM99.2348 504.146C100.728 504.146 101.922 504.673 102.815 505.726C103.735 506.766 104.195 507.999 104.195 509.426C104.195 509.493 104.182 509.699 104.155 510.046H95.3748C95.5082 511.046 95.9348 511.846 96.6548 512.446C97.3748 513.046 98.2748 513.346 99.3548 513.346C100.875 513.346 101.948 512.779 102.575 511.646L103.735 512.326C103.295 513.046 102.688 513.613 101.915 514.026C101.155 514.426 100.295 514.626 99.3348 514.626C97.7615 514.626 96.4815 514.133 95.4948 513.146C94.5082 512.159 94.0148 510.906 94.0148 509.386C94.0148 507.879 94.5015 506.633 95.4748 505.646C96.4482 504.646 97.7015 504.146 99.2348 504.146ZM99.2348 505.426C98.1948 505.426 97.3215 505.733 96.6148 506.346C95.9215 506.959 95.5082 507.766 95.3748 508.766H102.835C102.688 507.699 102.282 506.879 101.615 506.306C100.922 505.719 100.128 505.426 99.2348 505.426ZM111.655 504.146C113.081 504.146 114.295 504.653 115.295 505.666C116.308 506.679 116.815 507.919 116.815 509.386C116.815 510.853 116.308 512.093 115.295 513.106C114.295 514.119 113.081 514.626 111.655 514.626C109.881 514.626 108.535 513.893 107.615 512.426V518.386H106.295V504.386H107.615V506.346C108.535 504.879 109.881 504.146 111.655 504.146ZM108.755 512.206C109.515 512.966 110.448 513.346 111.555 513.346C112.661 513.346 113.595 512.966 114.355 512.206C115.115 511.419 115.495 510.479 115.495 509.386C115.495 508.279 115.115 507.346 114.355 506.586C113.595 505.813 112.661 505.426 111.555 505.426C110.448 505.426 109.515 505.813 108.755 506.586C107.995 507.346 107.615 508.279 107.615 509.386C107.615 510.479 107.995 511.419 108.755 512.206ZM120.329 508.186H123.069C123.989 508.186 124.776 508.479 125.429 509.066C126.083 509.639 126.409 510.379 126.409 511.286C126.409 512.206 126.083 512.953 125.429 513.526C124.803 514.099 124.016 514.386 123.069 514.386H119.009V504.386H120.329V508.186ZM127.809 514.386V504.386H129.129V514.386H127.809ZM120.329 513.106H123.069C123.643 513.106 124.123 512.939 124.509 512.606C124.896 512.259 125.089 511.819 125.089 511.286C125.089 510.753 124.896 510.319 124.509 509.986C124.123 509.639 123.643 509.466 123.069 509.466H120.329V513.106Z" fill="black"/>
<path d="M53.9 540.206L57.8 545.386H56.22L53.1 541.266L49.98 545.386H48.4L52.32 540.206L48.66 535.386H50.24L53.1 539.166L55.96 535.386H57.54L53.9 540.206ZM60.0298 538.006C60.0298 538.779 60.7165 539.346 62.0898 539.706C62.4765 539.799 62.7298 539.866 62.8498 539.906C62.9698 539.933 63.2032 540.006 63.5498 540.126C63.9098 540.233 64.1565 540.326 64.2898 540.406C64.4365 540.486 64.6365 540.613 64.8898 540.786C65.1432 540.946 65.3232 541.113 65.4298 541.286C65.5365 541.446 65.6365 541.659 65.7298 541.926C65.8232 542.179 65.8698 542.453 65.8698 542.746C65.8698 543.599 65.5298 544.293 64.8498 544.826C64.1965 545.359 63.3298 545.626 62.2498 545.626C61.3165 545.626 60.5098 545.419 59.8298 545.006C59.1498 544.579 58.6698 544.019 58.3898 543.326L59.5098 542.666C59.6965 543.186 60.0298 543.599 60.5098 543.906C61.0032 544.199 61.5832 544.346 62.2498 544.346C62.9298 544.346 63.4832 544.213 63.9098 543.946C64.3365 543.679 64.5498 543.279 64.5498 542.746C64.5498 541.973 63.8632 541.406 62.4898 541.046C62.1032 540.953 61.8498 540.893 61.7298 540.866C61.6098 540.826 61.3698 540.753 61.0098 540.646C60.6632 540.526 60.4165 540.426 60.2698 540.346C60.1365 540.266 59.9432 540.146 59.6898 539.986C59.4365 539.813 59.2565 539.646 59.1498 539.486C59.0432 539.313 58.9432 539.099 58.8498 538.846C58.7565 538.579 58.7098 538.299 58.7098 538.006C58.7098 537.193 59.0298 536.513 59.6698 535.966C60.3365 535.419 61.1565 535.146 62.1298 535.146C62.9298 535.146 63.6365 535.326 64.2498 535.686C64.8765 536.046 65.3365 536.546 65.6298 537.186L64.5298 537.826C64.1565 536.893 63.3565 536.426 62.1298 536.426C61.5298 536.426 61.0298 536.566 60.6298 536.846C60.2298 537.126 60.0298 537.513 60.0298 538.006ZM79.1119 538.006C79.1119 538.779 79.7985 539.346 81.1719 539.706C81.5585 539.799 81.8119 539.866 81.9319 539.906C82.0519 539.933 82.2852 540.006 82.6319 540.126C82.9919 540.233 83.2385 540.326 83.3719 540.406C83.5185 540.486 83.7185 540.613 83.9719 540.786C84.2252 540.946 84.4052 541.113 84.5119 541.286C84.6185 541.446 84.7185 541.659 84.8119 541.926C84.9052 542.179 84.9519 542.453 84.9519 542.746C84.9519 543.599 84.6119 544.293 83.9319 544.826C83.2785 545.359 82.4119 545.626 81.3319 545.626C80.3985 545.626 79.5919 545.419 78.9119 545.006C78.2319 544.579 77.7519 544.019 77.4719 543.326L78.5919 542.666C78.7785 543.186 79.1119 543.599 79.5919 543.906C80.0852 544.199 80.6652 544.346 81.3319 544.346C82.0119 544.346 82.5652 544.213 82.9919 543.946C83.4185 543.679 83.6319 543.279 83.6319 542.746C83.6319 541.973 82.9452 541.406 81.5719 541.046C81.1852 540.953 80.9319 540.893 80.8119 540.866C80.6919 540.826 80.4519 540.753 80.0919 540.646C79.7452 540.526 79.4985 540.426 79.3519 540.346C79.2185 540.266 79.0252 540.146 78.7719 539.986C78.5185 539.813 78.3385 539.646 78.2319 539.486C78.1252 539.313 78.0252 539.099 77.9319 538.846C77.8385 538.579 77.7919 538.299 77.7919 538.006C77.7919 537.193 78.1119 536.513 78.7519 535.966C79.4185 535.419 80.2385 535.146 81.2119 535.146C82.0119 535.146 82.7185 535.326 83.3319 535.686C83.9585 536.046 84.4185 536.546 84.7119 537.186L83.6119 537.826C83.2385 536.893 82.4385 536.426 81.2119 536.426C80.6119 536.426 80.1119 536.566 79.7119 536.846C79.3119 537.126 79.1119 537.513 79.1119 538.006ZM107.814 535.146C108.947 535.146 109.854 535.506 110.534 536.226C111.214 536.946 111.554 537.919 111.554 539.146V545.386H110.234V539.146C110.234 538.293 110.014 537.626 109.574 537.146C109.134 536.666 108.541 536.426 107.794 536.426C106.927 536.426 106.247 536.713 105.754 537.286C105.261 537.859 105.014 538.713 105.014 539.846V545.386H103.694V539.146C103.694 538.279 103.487 537.613 103.074 537.146C102.661 536.666 102.087 536.426 101.354 536.426C100.514 536.426 99.8206 536.719 99.2739 537.306C98.7406 537.893 98.4739 538.739 98.4739 539.846V545.386H97.1539V535.386H98.4739V536.846C99.1939 535.713 100.214 535.146 101.534 535.146C102.987 535.146 104.001 535.753 104.574 536.966C105.294 535.753 106.374 535.146 107.814 535.146ZM125.427 545.386H124.107V530.786H125.427V545.386ZM142.728 540.206L146.628 545.386H145.048L141.928 541.266L138.808 545.386H137.228L141.148 540.206L137.488 535.386H139.068L141.928 539.166L144.788 535.386H146.368L142.728 540.206ZM149.743 545.386H148.423V530.786H149.743V545.386Z" fill="black"/>
</svg>
